<?xml version="1.0" encoding="utf-8"?>
<!-- Generator: Adobe Illustrator 26.3.1, SVG Export Plug-In . SVG Version: 6.00 Build 0)  -->
<svg version="1.1" baseProfile="tiny" id="Ebene_1" xmlns="http://www.w3.org/2000/svg" xmlns:xlink="http://www.w3.org/1999/xlink"
	 x="0px" y="0px" width="1920px" height="1800px" viewBox="0 0 1920 1800" overflow="visible" xml:space="preserve">
<g>
	<path fill="#111110" d="M533.1626,1161.392l-149.5082-143.4564l43.2787-35.3728l15.7377-51.0941l151.4754-115.9442
		c0,0,86.5574-53.0593,442.6229-55.0244l9.8361,55.0244l57.0492,7.8606l120,169.0035l-82.6229,84.5018l-257.705,125.77
		l-31.4754,60.9199L812.5069,1324.5h-80.6558l-120-143.4564L533.1626,1161.392z"/>
	<polygon fill="#212121" points="579.7714,826.5274 605.9495,976.6672 525.2938,1042.5 694.4741,1042.5 694.4741,1076.8903 
		533.1626,1161.392 383.6544,1017.9355 426.9331,982.5627 442.6708,931.4686 	"/>
	<polygon fill="#212121" points="694.4741,1122.0889 611.8511,1181.0436 731.8511,1324.5 773.1626,1263.5802 	"/>
	<polygon fill="#212121" points="924.638,931.4686 1036.7692,760.5 1046.6052,815.5244 940.3757,949.155 	"/>
	<path fill="#333333" d="M605.9495,976.6672l-26.1782-150.1398c0,0,55.2722-47.9781,240.3725-56.8447
		c185.1003-8.8666,216.6253-9.1827,216.6253-9.1827L924.638,939.3293L605.9495,976.6672z"/>
	<polygon fill="#333333" points="694.4741,1076.8903 885.2938,1023.831 1223.6544,992.3885 1103.6544,823.385 1046.6052,815.5244 
		924.638,939.3293 924.638,964.8763 694.4741,1042.5 	"/>
	<polygon fill="#333333" points="694.4741,1122.0889 883.3265,1202.6603 851.8511,1263.5802 773.1626,1263.5802 	"/>
</g>
</svg>
