<?xml version="1.0" encoding="utf-8"?>
<!-- Generator: Adobe Illustrator 26.3.1, SVG Export Plug-In . SVG Version: 6.00 Build 0)  -->
<svg version="1.1" baseProfile="tiny" id="Ebene_1" xmlns="http://www.w3.org/2000/svg" xmlns:xlink="http://www.w3.org/1999/xlink"
	 x="0px" y="0px" width="305px" height="96px" viewBox="0 0 305 96" overflow="visible" xml:space="preserve">
<g>
	<path d="M48,4c24.2617,0,44,19.7383,44,44S72.2617,92,48,92S4,72.2617,4,48S23.7383,4,48,4 M48,0C21.4903,0,0,21.4903,0,48
		s21.4903,48,48,48s48-21.4903,48-48S74.5097,0,48,0L48,0z"/>
	<path d="M48,10c20.9533,0,38,17.0467,38,38S68.9533,86,48,86S10,68.9533,10,48S27.0467,10,48,10 M48,8C25.9086,8,8,25.9086,8,48
		s17.9086,40,40,40s40-17.9086,40-40S70.0914,8,48,8L48,8z"/>
	
		<line fill="none" stroke="#000000" stroke-width="4" stroke-linecap="round" stroke-miterlimit="10" x1="48" y1="22" x2="48" y2="74"/>
	<path fill="none" stroke="#000000" stroke-width="4" stroke-linecap="round" stroke-miterlimit="10" d="M70,28
		c-11.0457,0-20,8.9543-20,20c0,11.0457,8.9543,20,20,20"/>
	<path fill="none" stroke="#000000" stroke-width="4" stroke-linecap="round" stroke-miterlimit="10" d="M26,28
		c11.0457,0,20,8.9543,20,20c0,11.0457-8.9543,20-20,20"/>
</g>
<g>
	<path d="M128,19.9922h40.8203V28h-32.8125v16.0156h28.0078v8.0078h-28.0078V68h32.8125v8.0078H128V19.9922z"/>
	<path d="M225.0703,39.9922c0,7.8125-3.334,12.2656-10,13.3594l10.5469,22.6562H216.75L206.3594,53.625h-17.5391v22.3828h-8.0078
		V19.9922h30.6641c9.0625,0,13.5938,4.5449,13.5938,13.6328V39.9922z M188.8203,45.6172h22.2266
		c2.1348,0,3.6719-0.4688,4.6094-1.4062s1.4062-2.4736,1.4062-4.6094v-5.5859c0-2.1348-0.4688-3.6719-1.4062-4.6094
		S213.1816,28,211.0469,28h-22.2266V45.6172z"/>
	<path d="M246.4375,19.9922v56.0156h-8.0078V19.9922H246.4375z"/>
	<path d="M268.8203,52.0234c-1.0938,0-2.1289-0.2148-3.1055-0.6445s-1.8301-1.002-2.5586-1.7188
		c-0.7295-0.7158-1.3027-1.5625-1.7188-2.5391c-0.417-0.9766-0.625-2.0117-0.625-3.1055V28c0-1.0938,0.208-2.1289,0.625-3.1055
		c0.416-0.9766,0.9893-1.8223,1.7188-2.5391c0.7285-0.7158,1.582-1.2891,2.5586-1.7188s2.0117-0.6445,3.1055-0.6445h27.1875
		c1.0938,0,2.1289,0.2148,3.1055,0.6445s1.8291,1.0029,2.5586,1.7188c0.7285,0.7168,1.3018,1.5625,1.7188,2.5391
		c0.416,0.9766,0.625,2.0117,0.625,3.1055v7.2266h-8.0078V28h-27.1875v16.0156h27.1875c1.0938,0,2.1289,0.209,3.1055,0.625
		c0.9766,0.417,1.8291,0.9902,2.5586,1.7188c0.7285,0.7295,1.3018,1.582,1.7188,2.5586c0.416,0.9766,0.625,2.0117,0.625,3.1055V68
		c0,1.0938-0.209,2.1289-0.625,3.1055c-0.417,0.9766-0.9902,1.8301-1.7188,2.5586c-0.7295,0.7295-1.582,1.3027-2.5586,1.7188
		c-0.9766,0.417-2.0117,0.625-3.1055,0.625h-27.9688c-1.0938,0-2.1289-0.208-3.1055-0.625
		c-0.9766-0.416-1.8301-0.9893-2.5586-1.7188c-0.7295-0.7285-1.3027-1.582-1.7188-2.5586c-0.417-0.9766-0.625-2.0117-0.625-3.1055
		v-7.1875h8.0078V68h27.9688V52.0234H268.8203z"/>
</g>
</svg>
