<?xml version="1.0" encoding="utf-8"?>
<!-- Generator: Adobe Illustrator 26.3.1, SVG Export Plug-In . SVG Version: 6.00 Build 0)  -->
<svg version="1.1" baseProfile="tiny" id="Ebene_1" xmlns="http://www.w3.org/2000/svg" xmlns:xlink="http://www.w3.org/1999/xlink"
	 x="0px" y="0px" width="77px" height="24px" viewBox="0 0 77 24" overflow="visible" xml:space="preserve">
<g>
	<path d="M12,1c6.0654,0,11,4.9346,11,11s-4.9346,11-11,11S1,18.0654,1,12S5.9346,1,12,1 M12,0C5.3726,0,0,5.3726,0,12
		s5.3726,12,12,12s12-5.3726,12-12S18.6274,0,12,0L12,0z"/>
	<path d="M12,2.5c5.2383,0,9.5,4.2617,9.5,9.5s-4.2617,9.5-9.5,9.5S2.5,17.2383,2.5,12S6.7617,2.5,12,2.5 M12,2
		C6.4771,2,2,6.4771,2,12s4.4771,10,10,10s10-4.4771,10-10S17.5229,2,12,2L12,2z"/>
	<line fill="none" stroke="#000000" stroke-linecap="round" stroke-miterlimit="10" x1="12" y1="5.5" x2="12" y2="18.5"/>
	<path fill="none" stroke="#000000" stroke-linecap="round" stroke-miterlimit="10" d="M17.5,7c-2.7614,0-5,2.2386-5,5
		c0,2.7614,2.2386,5,5,5"/>
	<path fill="none" stroke="#000000" stroke-linecap="round" stroke-miterlimit="10" d="M6.5,7c2.7614,0,5,2.2386,5,5
		c0,2.7614-2.2386,5-5,5"/>
</g>
<g>
	<path d="M32,4.998h10.2046V7h-8.2031v4.0039h7.002v2.002h-7.002V17h8.2031v2.002H32V4.998z"/>
	<path d="M56.2671,9.998c0,1.9531-0.833,3.0664-2.5,3.3398l2.6367,5.6641H54.187l-2.5977-5.5957h-4.3848v5.5957h-2.002V4.998h7.666
		c2.2656,0,3.3984,1.1362,3.3984,3.4082V9.998z M47.2046,11.4043h5.5566c0.5342,0,0.918-0.1172,1.1523-0.3516
		s0.3516-0.6187,0.3516-1.1523V8.5039c0-0.5337-0.1172-0.918-0.3516-1.1523S53.2954,7,52.7612,7h-5.5566V11.4043z"/>
	<path d="M61.6089,4.998V19.002h-2.002V4.998H61.6089z"/>
	<path d="M67.2046,13.0059c-0.2734,0-0.5322-0.0537-0.7764-0.1611s-0.457-0.2505-0.6396-0.4297s-0.3252-0.3906-0.4297-0.6348
		s-0.1562-0.5029-0.1562-0.7764V7c0-0.2734,0.0518-0.5322,0.1562-0.7764s0.2471-0.4556,0.4297-0.6348s0.3955-0.3223,0.6396-0.4297
		s0.5029-0.1611,0.7764-0.1611h6.7969c0.2734,0,0.5322,0.0537,0.7764,0.1611s0.457,0.2505,0.6396,0.4297
		s0.3252,0.3906,0.4297,0.6348S76.0034,6.7266,76.0034,7v1.8066h-2.002V7h-6.7969v4.0039h6.7969
		c0.2734,0,0.5322,0.0522,0.7764,0.1562s0.457,0.2476,0.6396,0.4297s0.3252,0.3955,0.4297,0.6396s0.1562,0.5029,0.1562,0.7764V17
		c0,0.2734-0.0518,0.5322-0.1562,0.7764s-0.2471,0.457-0.4297,0.6396s-0.3955,0.3252-0.6396,0.4297s-0.5029,0.1562-0.7764,0.1562
		h-6.9922c-0.2734,0-0.5322-0.0518-0.7764-0.1562s-0.457-0.2471-0.6396-0.4297s-0.3252-0.3955-0.4297-0.6396
		S65.0073,17.2734,65.0073,17v-1.7969h2.002V17h6.9922v-3.9941H67.2046z"/>
</g>
</svg>
