<?xml version="1.0" encoding="utf-8"?>
<!-- Generator: Adobe Illustrator 26.3.1, SVG Export Plug-In . SVG Version: 6.00 Build 0)  -->
<svg version="1.1" baseProfile="tiny" id="Ebene_1" xmlns="http://www.w3.org/2000/svg" xmlns:xlink="http://www.w3.org/1999/xlink"
	 x="0px" y="0px" width="115px" height="36px" viewBox="0 0 115 36" overflow="visible" xml:space="preserve">
<path d="M18,1.5c9.0981,0,16.5,7.4019,16.5,16.5S27.0981,34.5,18,34.5S1.5,27.0981,1.5,18S8.9019,1.5,18,1.5 M18,0
	C8.0589,0,0,8.0589,0,18s8.0589,18,18,18s18-8.0589,18-18S27.9411,0,18,0L18,0z"/>
<path d="M18,4c7.7196,0,14,6.2804,14,14s-6.2804,14-14,14S4,25.7196,4,18S10.2804,4,18,4 M18,3C9.7157,3,3,9.7157,3,18
	s6.7157,15,15,15s15-6.7157,15-15S26.2843,3,18,3L18,3z"/>
<line fill="none" stroke="#000000" stroke-width="1.5" stroke-linecap="round" stroke-miterlimit="10" x1="18" y1="8.25" x2="18" y2="27.75"/>
<path fill="none" stroke="#000000" stroke-width="1.5" stroke-linecap="round" stroke-miterlimit="10" d="M26.25,10.5
	c-4.1421,0-7.5,3.3579-7.5,7.5c0,4.1421,3.3579,7.5,7.5,7.5"/>
<path fill="none" stroke="#000000" stroke-width="1.5" stroke-linecap="round" stroke-miterlimit="10" d="M9.75,10.5
	c4.1421,0,7.5,3.3579,7.5,7.5c0,4.1421-3.3579,7.5-7.5,7.5"/>
<g>
	<path d="M48,7.4968h15.3076v3.0029H51.0029v6.0059h10.5029v3.0034H51.0029v5.9912h12.3047v3.0029H48V7.4968z"/>
	<path d="M84.4014,14.9968c0,2.9302-1.25,4.6001-3.75,5.0103l3.9551,8.4961h-3.3252l-3.8965-8.3936h-6.5771v8.3936h-3.0029V7.4968
		h11.499c3.3984,0,5.0977,1.7041,5.0977,5.1123V14.9968z M70.8076,17.1067h8.335c0.8008,0,1.377-0.1758,1.7285-0.5278
		c0.3516-0.3516,0.5273-0.9277,0.5273-1.7285v-2.0947c0-0.8008-0.1758-1.377-0.5273-1.7285s-0.9277-0.5273-1.7285-0.5273h-8.335
		V17.1067z"/>
	<path d="M92.4141,7.4968v21.0063h-3.0029V7.4968H92.4141z"/>
	<path d="M100.8076,19.509c-0.4102,0-0.7979-0.0811-1.165-0.2422c-0.3652-0.1611-0.6855-0.376-0.959-0.6445
		s-0.4883-0.5859-0.6445-0.9521s-0.2344-0.7539-0.2344-1.1646v-6.0059c0-0.4102,0.0781-0.7983,0.2344-1.1646
		s0.3711-0.6836,0.6445-0.9521s0.5938-0.4834,0.959-0.6445c0.3672-0.1611,0.7549-0.2417,1.165-0.2417h10.1953
		c0.4102,0,0.7979,0.0806,1.165,0.2417c0.3652,0.1611,0.6855,0.376,0.959,0.6445s0.4883,0.5859,0.6445,0.9521
		s0.2344,0.7544,0.2344,1.1646v2.71h-3.0029v-2.71h-10.1953v6.0059h10.1953c0.4102,0,0.7979,0.0781,1.165,0.2344
		c0.3652,0.1562,0.6855,0.3716,0.959,0.645s0.4883,0.5928,0.6445,0.959s0.2344,0.7549,0.2344,1.165v5.9912
		c0,0.4102-0.0781,0.7979-0.2344,1.1641s-0.3711,0.6865-0.6445,0.96s-0.5938,0.4883-0.959,0.6445
		c-0.3672,0.1562-0.7549,0.2344-1.165,0.2344h-10.4883c-0.4102,0-0.7979-0.0781-1.165-0.2344
		c-0.3652-0.1562-0.6855-0.3711-0.959-0.6445s-0.4883-0.5938-0.6445-0.96s-0.2344-0.7539-0.2344-1.1641v-2.6953h3.0029v2.6953
		h10.4883V19.509H100.8076z"/>
</g>
</svg>
