<?xml version="1.0" encoding="utf-8"?>
<!-- Generator: Adobe Illustrator 26.3.1, SVG Export Plug-In . SVG Version: 6.00 Build 0)  -->
<svg version="1.1" baseProfile="tiny" id="Ebene_1" xmlns="http://www.w3.org/2000/svg" xmlns:xlink="http://www.w3.org/1999/xlink"
	 x="0px" y="0px" width="229px" height="72px" viewBox="0 0 229 72" overflow="visible" xml:space="preserve">
<path d="M36,2.5c18.472,0,33.5,15.028,33.5,33.5S54.472,69.5,36,69.5S2.5,54.472,2.5,36S17.528,2.5,36,2.5 M36,0
	C16.1178,0,0,16.1178,0,36s16.1178,36,36,36s36-16.1178,36-36S55.8822,0,36,0L36,0z"/>
<path d="M36,7.5c15.715,0,28.5,12.785,28.5,28.5S51.715,64.5,36,64.5S7.5,51.715,7.5,36S20.285,7.5,36,7.5 M36,6
	C19.4315,6,6,19.4315,6,36s13.4315,30,30,30s30-13.4315,30-30S52.5685,6,36,6L36,6z"/>
<line fill="none" stroke="#000000" stroke-width="2.5" stroke-linecap="round" stroke-miterlimit="10" x1="36" y1="16.5" x2="36" y2="55.5"/>
<path fill="none" stroke="#000000" stroke-width="2.5" stroke-linecap="round" stroke-miterlimit="10" d="M52.5,21
	c-8.2843,0-15,6.7157-15,15c0,8.2842,6.7157,15,15,15"/>
<path fill="none" stroke="#000000" stroke-width="2.5" stroke-linecap="round" stroke-miterlimit="10" d="M19.5,21
	c8.2843,0,15,6.7157,15,15c0,8.2842-6.7157,15-15,15"/>
<g>
	<path d="M96,14.9941h30.6152V21h-24.6094v12.0117h21.0059v6.0059h-21.0059V51h24.6094v6.0059H96V14.9941z"/>
	<path d="M168.8027,29.9941c0,5.8594-2.5,9.1992-7.5,10.0195l7.9102,16.9922h-6.6504l-7.793-16.7871h-13.1543v16.7871h-6.0059
		V14.9941h22.998c6.7969,0,10.1953,3.4087,10.1953,10.2246V29.9941z M141.6152,34.2129h16.6699c1.6016,0,2.7539-0.3516,3.457-1.0547
		s1.0547-1.8555,1.0547-3.457v-4.1895c0-1.6011-0.3516-2.7539-1.0547-3.457S159.8867,21,158.2852,21h-16.6699V34.2129z"/>
	<path d="M184.8281,14.9941v42.0117h-6.0059V14.9941H184.8281z"/>
	<path d="M201.6152,39.0176c-0.8203,0-1.5967-0.1611-2.3291-0.4834s-1.3721-0.7515-1.9189-1.2891
		c-0.5469-0.5371-0.9766-1.1719-1.2891-1.9043s-0.4688-1.5088-0.4688-2.3291V21c0-0.8203,0.1562-1.5967,0.4688-2.3291
		s0.7422-1.3667,1.2891-1.9043c0.5469-0.5371,1.1865-0.9668,1.9189-1.2891s1.5088-0.4834,2.3291-0.4834h20.3906
		c0.8203,0,1.5967,0.1611,2.3291,0.4834s1.3721,0.752,1.9189,1.2891c0.5469,0.5376,0.9766,1.1719,1.2891,1.9043
		s0.4688,1.5088,0.4688,2.3291v5.4199h-6.0059V21h-20.3906v12.0117h20.3906c0.8203,0,1.5967,0.1567,2.3291,0.4688
		c0.7324,0.3125,1.3721,0.7427,1.9189,1.2891c0.5469,0.5469,0.9766,1.1865,1.2891,1.9189s0.4688,1.5088,0.4688,2.3291V51
		c0,0.8203-0.1562,1.5967-0.4688,2.3291s-0.7422,1.3721-1.2891,1.9189s-1.1865,0.9766-1.9189,1.2891s-1.5088,0.4688-2.3291,0.4688
		h-20.9766c-0.8203,0-1.5967-0.1562-2.3291-0.4688s-1.3721-0.7422-1.9189-1.2891s-0.9766-1.1865-1.2891-1.9189
		s-0.4688-1.5088-0.4688-2.3291v-5.3906h6.0059V51h20.9766V39.0176H201.6152z"/>
</g>
</svg>
