<?xml version="1.0" encoding="utf-8"?>
<!-- Generator: Adobe Illustrator 26.3.1, SVG Export Plug-In . SVG Version: 6.00 Build 0)  -->
<svg version="1.1" baseProfile="tiny" id="Ebene_1" xmlns="http://www.w3.org/2000/svg" xmlns:xlink="http://www.w3.org/1999/xlink"
	 x="0px" y="0px" width="24px" height="24px" viewBox="0 0 24 24" overflow="visible" xml:space="preserve">
<path d="M12,1c6.0654,0,11,4.9346,11,11s-4.9346,11-11,11S1,18.0654,1,12S5.9346,1,12,1 M12,0C5.3726,0,0,5.3726,0,12
	s5.3726,12,12,12s12-5.3726,12-12S18.6274,0,12,0L12,0z"/>
<path d="M12,2.5c5.2383,0,9.5,4.2617,9.5,9.5s-4.2617,9.5-9.5,9.5S2.5,17.2383,2.5,12S6.7617,2.5,12,2.5 M12,2
	C6.4771,2,2,6.4771,2,12s4.4771,10,10,10s10-4.4771,10-10S17.5229,2,12,2L12,2z"/>
<line fill="none" stroke="#000000" stroke-linecap="round" stroke-miterlimit="10" x1="12" y1="5.5" x2="12" y2="18.5"/>
<path fill="none" stroke="#000000" stroke-linecap="round" stroke-miterlimit="10" d="M17.5,7c-2.7614,0-5,2.2386-5,5
	c0,2.7614,2.2386,5,5,5"/>
<path fill="none" stroke="#000000" stroke-linecap="round" stroke-miterlimit="10" d="M6.5,7c2.7614,0,5,2.2386,5,5
	c0,2.7614-2.2386,5-5,5"/>
</svg>
