<?xml version="1.0" encoding="utf-8"?>
<!-- Generator: Adobe Illustrator 26.3.1, SVG Export Plug-In . SVG Version: 6.00 Build 0)  -->
<svg version="1.1" baseProfile="tiny" id="Ebene_1" xmlns="http://www.w3.org/2000/svg" xmlns:xlink="http://www.w3.org/1999/xlink"
	 x="0px" y="0px" width="48px" height="48px" viewBox="0 0 48 48" overflow="visible" xml:space="preserve">
<g>
	<path d="M24,2c12.1308,0,22,9.8692,22,22s-9.8692,22-22,22S2,36.1308,2,24S11.8692,2,24,2 M24,0C10.7452,0,0,10.7452,0,24
		s10.7452,24,24,24s24-10.7452,24-24S37.2548,0,24,0L24,0z"/>
	<path d="M24,5c10.4766,0,19,8.5234,19,19s-8.5234,19-19,19S5,34.4766,5,24S13.5234,5,24,5 M24,4C12.9543,4,4,12.9543,4,24
		s8.9543,20,20,20s20-8.9543,20-20S35.0457,4,24,4L24,4z"/>
	
		<line fill="none" stroke="#000000" stroke-width="2" stroke-linecap="round" stroke-miterlimit="10" x1="24" y1="11" x2="24" y2="37"/>
	<path fill="none" stroke="#000000" stroke-width="2" stroke-linecap="round" stroke-miterlimit="10" d="M35,14
		c-5.5229,0-10,4.4771-10,10c0,5.5228,4.4771,10,10,10"/>
	<path fill="none" stroke="#000000" stroke-width="2" stroke-linecap="round" stroke-miterlimit="10" d="M13,14
		c5.5229,0,10,4.4771,10,10c0,5.5228-4.4771,10-10,10"/>
</g>
</svg>
