<?xml version="1.0" encoding="utf-8"?>
<!-- Generator: Adobe Illustrator 26.3.1, SVG Export Plug-In . SVG Version: 6.00 Build 0)  -->
<svg version="1.1" baseProfile="tiny" id="Ebene_1" xmlns="http://www.w3.org/2000/svg" xmlns:xlink="http://www.w3.org/1999/xlink"
	 x="0px" y="0px" width="36px" height="36px" viewBox="0 0 36 36" overflow="visible" xml:space="preserve">
<path d="M18,1.5c9.0981,0,16.5,7.4019,16.5,16.5S27.0981,34.5,18,34.5S1.5,27.0981,1.5,18S8.9019,1.5,18,1.5 M18,0
	C8.0589,0,0,8.0589,0,18s8.0589,18,18,18s18-8.0589,18-18S27.9411,0,18,0L18,0z"/>
<path d="M18,4c7.7196,0,14,6.2804,14,14s-6.2804,14-14,14S4,25.7196,4,18S10.2804,4,18,4 M18,3C9.7157,3,3,9.7157,3,18
	s6.7157,15,15,15s15-6.7157,15-15S26.2843,3,18,3L18,3z"/>
<line fill="none" stroke="#000000" stroke-width="1.5" stroke-linecap="round" stroke-miterlimit="10" x1="18" y1="8.25" x2="18" y2="27.75"/>
<path fill="none" stroke="#000000" stroke-width="1.5" stroke-linecap="round" stroke-miterlimit="10" d="M26.25,10.5
	c-4.1421,0-7.5,3.3579-7.5,7.5c0,4.1421,3.3579,7.5,7.5,7.5"/>
<path fill="none" stroke="#000000" stroke-width="1.5" stroke-linecap="round" stroke-miterlimit="10" d="M9.75,10.5
	c4.1421,0,7.5,3.3579,7.5,7.5c0,4.1421-3.3579,7.5-7.5,7.5"/>
</svg>
