<?xml version="1.0" encoding="utf-8"?>
<!-- Generator: Adobe Illustrator 26.3.1, SVG Export Plug-In . SVG Version: 6.00 Build 0)  -->
<svg version="1.1" baseProfile="tiny" id="Ebene_1" xmlns="http://www.w3.org/2000/svg" xmlns:xlink="http://www.w3.org/1999/xlink"
	 x="0px" y="0px" width="72px" height="72px" viewBox="0 0 72 72" overflow="visible" xml:space="preserve">
<path d="M36,2.5c18.472,0,33.5,15.028,33.5,33.5S54.472,69.5,36,69.5S2.5,54.472,2.5,36S17.528,2.5,36,2.5 M36,0
	C16.1178,0,0,16.1178,0,36s16.1178,36,36,36s36-16.1178,36-36S55.8822,0,36,0L36,0z"/>
<path d="M36,7.5c15.715,0,28.5,12.785,28.5,28.5S51.715,64.5,36,64.5S7.5,51.715,7.5,36S20.285,7.5,36,7.5 M36,6
	C19.4315,6,6,19.4315,6,36s13.4315,30,30,30s30-13.4315,30-30S52.5685,6,36,6L36,6z"/>
<line fill="none" stroke="#000000" stroke-width="2.5" stroke-linecap="round" stroke-miterlimit="10" x1="36" y1="16.5" x2="36" y2="55.5"/>
<path fill="none" stroke="#000000" stroke-width="2.5" stroke-linecap="round" stroke-miterlimit="10" d="M52.5,21
	c-8.2843,0-15,6.7157-15,15c0,8.2842,6.7157,15,15,15"/>
<path fill="none" stroke="#000000" stroke-width="2.5" stroke-linecap="round" stroke-miterlimit="10" d="M19.5,21
	c8.2843,0,15,6.7157,15,15c0,8.2842-6.7157,15-15,15"/>
</svg>
