<?xml version="1.0" encoding="utf-8"?>
<!-- Generator: Adobe Illustrator 26.3.1, SVG Export Plug-In . SVG Version: 6.00 Build 0)  -->
<svg version="1.1" baseProfile="tiny" id="Layer_3" xmlns="http://www.w3.org/2000/svg" xmlns:xlink="http://www.w3.org/1999/xlink"
	 x="0px" y="0px" width="3840px" height="1800px" viewBox="0 0 3840 1800" overflow="visible" xml:space="preserve">
<g>
	<polygon fill="#111110" points="3108.6541,1103.7472 3129.9875,1103.7472 3140.2732,1119.3663 3134.5591,1127.3665 
		3117.416,1127.3665 3107.1301,1119.3663 	"/>
	<polygon fill="#333333" points="3129.9875,1103.7472 3119.7969,1119.4615 3134.5591,1127.3665 3140.2732,1119.3663 	"/>
	<polygon fill="#212121" points="3107.1301,1119.3663 3108.6541,1103.7472 3129.9875,1103.7472 3119.7969,1119.4615 	"/>
</g>
<g>
	<polygon fill="#111110" points="667.2709,1170.2643 653.1982,1157.8472 653.1982,1126.3907 667.2709,1126.3907 684.6547,1139.6356 
		684.6547,1156.1917 	"/>
	<polygon fill="#212121" points="653.1982,1157.8472 668.9265,1154.1221 667.2709,1126.3907 653.1982,1126.3907 	"/>
	<polygon fill="#333333" points="668.9265,1154.1221 667.2709,1126.3907 684.6547,1139.6356 684.6547,1156.1917 675.9628,1163.2279 
			"/>
</g>
<g>
	<polygon fill="#111110" points="473.0351,1065.0157 461.594,1059.1406 461.594,1043.0613 473.0351,1036.5677 487.8775,1035.0216 
		502.4107,1050.0187 492.2065,1062.439 	"/>
	<polygon fill="#212121" points="461.594,1059.1406 473.0351,1065.0157 485.713,1056.3577 480.7462,1035.7645 473.0351,1036.5677 
		461.594,1043.0613 	"/>
	<polygon fill="#333333" points="480.7462,1035.7645 487.8775,1035.0216 502.4107,1050.0187 485.713,1056.3577 	"/>
</g>
<g>
	<polygon fill="#111110" points="590.4275,1389.8839 605.2519,1378.2821 619.2361,1389.8839 619.2361,1404.0637 604.8318,1423.4 
		585.9157,1409.2201 	"/>
	<polygon fill="#212121" points="590.4275,1389.8839 610.6062,1415.6486 619.2361,1404.0637 619.2361,1389.8839 605.2519,1378.2821 
			"/>
</g>
<g>
	<polygon fill="#111110" points="2798.0718,1599.3646 2812.7803,1587.8535 2826.6555,1599.3646 2826.6555,1613.4338 
		2812.3635,1632.6191 2793.5952,1618.5499 	"/>
	<polygon fill="#212121" points="2798.0718,1599.3646 2818.0928,1624.9282 2826.6555,1613.4338 2826.6555,1599.3646 
		2812.7803,1587.8535 	"/>
</g>
<g>
	<polygon fill="#111110" points="2706.9468,1368.3037 2713.2266,1363.594 2730.4956,1363.594 2730.4956,1375.1068 
		2722.1228,1379.6421 2706.9468,1377.7233 	"/>
	<polygon fill="#212121" points="2706.9468,1377.7233 2722.3843,1375.1068 2722.3843,1363.594 2713.2266,1363.594 
		2706.9468,1368.3037 	"/>
	<polygon fill="#333333" points="2722.3843,1375.1068 2725.665,1377.7233 2730.4956,1375.1068 2730.4956,1363.594 
		2722.3843,1363.594 	"/>
</g>
<g>
	<polygon fill="#111110" points="3227.1816,1445.9292 3215.2007,1439.319 3210.656,1432.2957 3224.2896,1419.4884 
		3235.8574,1428.1643 3235.8574,1440.5583 	"/>
	<polygon fill="#212121" points="3210.656,1432.2957 3227.8701,1439.319 3235.8574,1428.1643 3224.2896,1419.4884 	"/>
	<polygon fill="#333333" points="3227.8701,1439.319 3227.1816,1445.9292 3235.8574,1440.5583 3235.8574,1428.1643 	"/>
</g>
<g>
	<polygon fill="#111110" points="2910.8149,522.6345 2910.8149,515.4046 2924.8616,512.0995 2934.3638,520.7754 2930.6455,528.2119 
		2916.1858,528.2119 	"/>
	<polygon fill="#212121" points="2910.8149,515.4046 2910.8149,522.6345 2924.0354,523.8739 2924.8616,512.0995 	"/>
	<polygon fill="#333333" points="2924.0354,523.8739 2930.6455,528.2119 2934.3638,520.7754 2924.8616,512.0995 	"/>
</g>
</svg>
