<?xml version="1.0" encoding="utf-8"?>
<!-- Generator: Adobe Illustrator 26.3.1, SVG Export Plug-In . SVG Version: 6.00 Build 0)  -->
<svg version="1.1" baseProfile="tiny" id="Layer_1" xmlns="http://www.w3.org/2000/svg" xmlns:xlink="http://www.w3.org/1999/xlink"
	 x="0px" y="0px" width="3840px" height="1800px" viewBox="0 0 3840 1800" overflow="visible" xml:space="preserve">
<g>
	<polygon fill="#111110" points="2868.7444,708.2776 2936.8279,686.1211 2936.8279,661.4702 3047.1699,636.8193 3083.5593,672.5485 
		3029.562,843.4171 2949.7402,865.7203 2925.0894,835.2002 2868.7444,818.7662 	"/>
	<polygon fill="#212121" points="2868.7444,818.7662 2929.7847,798.8108 2925.0894,835.2002 3008.0415,805.8539 3029.562,843.4171 
		3083.5593,672.5485 3073.6272,662.7967 3027.6057,811.3318 3010.259,785.5071 3012.7368,703.3376 3047.1699,636.8193 
		3032.7542,640.0399 2999.4333,708.8156 2994.7378,794.1154 2942.3059,805.8539 2943.0884,777.6815 2931.3499,758.8998 
		2936.8279,686.1211 2925.5393,689.7947 2921.1765,783.942 2880.4829,792.5502 2881.2656,717.4238 2905.2988,696.3817 
		2868.7444,708.2776 	"/>
	<polygon fill="#212121" points="2880.4829,792.5502 2881.2656,717.4238 2901.5305,697.608 2925.5393,689.7947 2921.1765,783.942 	
		"/>
	<polygon fill="#212121" points="2936.8279,661.4702 2931.3499,758.8998 2943.0884,777.6815 2942.3059,805.8539 2998.6506,795.6805 
		3000.7913,706.0126 3043.2571,636.8193 	"/>
	<polygon fill="#333333" points="3008.0415,805.8539 3012.7368,703.3376 3047.1699,636.8193 3083.5593,672.5485 3029.562,843.4171 	
		"/>
</g>
<g>
	<g>
		<polygon fill="#111110" points="652.2794,843.0865 665.1994,741.1625 716.8792,707.4272 780.7611,707.4272 787.2211,744.0337 
			842.4897,754.0825 842.4897,797.149 825.9809,831.6022 790.8099,828.7311 790.8099,843.0865 688.8859,865.3376 		"/>
		<polygon fill="#212121" points="652.2794,843.0865 753.9825,813.8804 780.7611,707.4272 716.8792,707.4272 665.1994,741.1625 		
			"/>
		<polygon fill="#333333" points="790.8099,843.0865 753.9825,813.8804 780.7611,707.4272 787.2211,744.0337 842.4897,754.0825 
			842.4897,797.149 825.9809,831.6022 790.8099,828.7311 		"/>
	</g>
	<polygon fill="#111110" points="696.2431,801.6351 677.9399,787.6385 677.9399,755.877 715.0847,748.8787 715.0847,788.7151 	"/>
	<polygon fill="#212121" points="705.9331,779.5635 696.5123,752.3778 677.9399,755.877 677.9399,787.6385 715.0847,788.7151 	"/>
	<polygon fill="#333333" points="715.0847,770.5464 715.0847,748.8787 696.5123,752.3778 705.9331,779.5635 715.0847,788.7151 	"/>
</g>
<g>
	<polygon fill="#212121" points="1099.1412,1167.6002 1099.1412,1012.717 1034.4006,1005.1013 1007.2095,973.3784 
		1016.2732,966.257 1090.0775,961.0777 1218.9114,1001.8643 1200.7839,1144.2937 1175.8589,1142.3514 	"/>
	<polygon fill="#111110" points="1007.2095,973.3784 1057.4396,1167.6002 1099.1412,1167.6002 1099.1412,1012.717 
		1034.4006,1005.1013 	"/>
	<polygon fill="#333333" points="1218.9114,1001.8643 1099.1412,1012.717 1099.1412,1167.6002 1175.8589,1142.3514 
		1200.7839,1144.2937 	"/>
</g>
<g>
	<g>
		<path fill="#111110" d="M934.5631,505.0237l10.7416-61.9705c0,0,36.356-31.3984,99.9791-28.0933l30.5721,59.4917
			c0,0-15.6992,14.0466-19.8306,36.356c-4.1313,22.3094-7.4365,31.3984-7.4365,31.3984l-73.5383,42.9662l-28.0933-34.7036
			l11.5679-28.9196L934.5631,505.0237z"/>
		<polygon fill="#212121" points="946.9572,550.4688 1029.86,525.6805 1029.86,479.9601 1019.3939,479.9601 1021.5973,503.6466 
			958.5251,521.5492 		"/>
		<path fill="#333333" d="M934.5631,505.0237l85.2466-20.593l25.4741-69.4708c0,0-52.8815-6.6102-99.9791,28.0933L934.5631,505.0237
			z"/>
		<polygon fill="#333333" points="1029.86,525.6805 1029.86,479.9601 1045.2838,414.9599 1075.856,474.4516 1064.0127,493.7313 
			1048.5889,542.2061 		"/>
	</g>
	<polygon fill="#212121" points="1045.2838,416.2069 1029.86,481.2072 1019.3939,481.2072 	"/>
</g>
<g>
	<polygon fill="#111110" points="2540.8918,1278.5146 2540.8918,1189.8285 2589.1917,1171.2726 2617.844,1171.2726 
		2637.4915,1171.2726 2662.0508,1201.5624 2646.4966,1272.7842 2607.2017,1307.9857 2583.4612,1307.9857 	"/>
	<polygon fill="#212121" points="2622.7559,1271.9656 2540.8918,1278.5146 2540.8918,1189.8285 2589.1917,1171.2726 
		2637.4915,1171.2726 	"/>
	<polygon fill="#333333" points="2646.4966,1272.7842 2662.0508,1201.5624 2637.4915,1171.2726 2622.7559,1271.9656 
		2607.2017,1307.9857 	"/>
</g>
<g>
	<polygon fill="#111110" points="2933.4111,1401.0029 2950.7476,1467.3964 3030.8164,1480.2645 3048.689,1413.876 
		3000.7905,1363.7357 2977.9138,1363.7357 	"/>
	<polygon fill="#212121" points="3005.0801,1455.9579 3000.7905,1363.7357 2977.9138,1363.7357 2933.4111,1401.0029 
		2950.7476,1467.3964 	"/>
	<polygon fill="#333333" points="3015.9822,1461.6771 3030.8164,1480.2645 3048.689,1413.876 3000.7905,1363.7357 
		3005.0801,1455.9579 	"/>
</g>
</svg>
