<?xml version="1.0" encoding="utf-8"?>
<!-- Generator: Adobe Illustrator 26.3.1, SVG Export Plug-In . SVG Version: 6.00 Build 0)  -->
<svg version="1.1" baseProfile="tiny" id="Layer_2" xmlns="http://www.w3.org/2000/svg" xmlns:xlink="http://www.w3.org/1999/xlink"
	 x="0px" y="0px" width="3840px" height="1800px" viewBox="0 0 3840 1800" overflow="visible" xml:space="preserve">
<g>
	<polygon fill="#111110" points="2754.043,563.3491 2707.0046,535.2665 2707.0046,454.5289 2779.3171,433.467 2808.804,453.8269 
		2771.5945,551.4139 	"/>
	<polygon fill="#212121" points="2757.9043,519.119 2779.3171,433.467 2707.0046,454.5289 2707.0046,535.2665 	"/>
	<polygon fill="#333333" points="2794.7002,444.0885 2779.3171,433.467 2757.9043,519.119 2771.5945,551.4139 2808.804,453.8269 	
		"/>
</g>
<g>
	<polygon fill="#111110" points="2866.6113,209.3822 2877.4077,250.7298 2927.272,258.7437 2938.4026,217.3991 2908.573,186.1734 
		2894.3259,186.1734 	"/>
	<polygon fill="#212121" points="2911.2444,243.6063 2908.573,186.1734 2894.3259,186.1734 2866.6113,209.3822 2877.4077,250.7298 	
		"/>
	<polygon fill="#333333" points="2918.0337,247.168 2927.272,258.7437 2938.4026,217.3991 2908.573,186.1734 2911.2444,243.6063 	
		"/>
</g>
<g>
	<polygon fill="#111110" points="2706.0342,838.5375 2742.9412,816.5035 2742.9412,753.1558 2686.2036,736.6304 2663.0679,752.605 
		2692.2629,829.173 	"/>
	<polygon fill="#212121" points="2703.0046,803.834 2686.2036,736.6304 2742.9412,753.1558 2742.9412,816.5035 	"/>
	<polygon fill="#333333" points="2674.134,744.9642 2686.2036,736.6304 2703.0046,803.834 2692.2629,829.173 2663.0679,752.605 	"/>
</g>
<g>
	<polygon fill="#111110" points="3050.1438,507.7684 3018.1577,483.3083 3018.1577,427.8029 3083.0708,415.5729 3083.0708,485.1899 
			"/>
	<polygon fill="#212121" points="3067.0779,469.1968 3050.6143,421.6879 3018.1577,427.8029 3018.1577,483.3083 3083.0708,485.1899 
			"/>
	<polygon fill="#333333" points="3083.0708,453.4389 3083.0708,415.5729 3050.6143,421.6879 3067.0779,469.1968 3083.0708,485.1899 
			"/>
</g>
<g>
	<polygon fill="#111110" points="3026.2954,1169.9562 3026.2954,1132.2054 3083.2119,1103.7472 3101.7969,1103.7472 
		3101.7969,1134.5286 3085.5349,1183.8949 3058.8191,1192.6067 	"/>
	<polygon fill="#212121" points="3048.9458,1165.8907 3079.1465,1154.8558 3083.2119,1103.7472 3026.2954,1132.2054 
		3026.2954,1169.9562 	"/>
	<polygon fill="#333333" points="3079.1465,1154.8558 3085.5349,1183.8949 3101.7969,1134.5286 3101.7969,1103.7472 
		3083.2119,1103.7472 	"/>
</g>
<g>
	<polygon fill="#111110" points="3372.4058,630.8193 3336.2859,623.7429 3322.084,602.5626 3322.084,586.0015 3351.9624,566.3446 
		3372.4058,574.9937 3383.4136,598.582 	"/>
	<polygon fill="#212121" points="3351.9624,566.3446 3364.1497,606.8379 3352.7488,626.9682 3336.2859,623.7429 3322.084,602.5626 
		3322.084,586.0015 	"/>
	<polygon fill="#333333" points="3351.9624,566.3446 3364.1497,606.8379 3377.3467,616.3494 3383.4136,598.582 3372.4058,574.9937 	
		"/>
</g>
<g>
	<polygon fill="#111110" points="2707.7266,1552.3236 2669.3694,1544.8087 2654.2874,1522.3164 2654.2874,1504.7294 
		2686.0168,1483.8547 2707.7266,1493.0397 2719.4163,1518.0892 	"/>
	<polygon fill="#212121" points="2686.0168,1483.8547 2698.9592,1526.8566 2686.8518,1548.2339 2669.3694,1544.8087 
		2654.2874,1522.3164 2654.2874,1504.7294 	"/>
	<polygon fill="#333333" points="2686.0168,1483.8547 2698.9592,1526.8566 2712.9734,1536.9573 2719.4163,1518.0892 
		2707.7266,1493.0397 	"/>
</g>
<g>
	<polygon fill="#111110" points="863.9441,1397.6144 825.0181,1389.988 809.7125,1367.1621 809.7125,1349.3143 841.9125,1328.13 
		863.9441,1337.451 875.8073,1362.8722 	"/>
	<polygon fill="#212121" points="841.9125,1328.13 855.0468,1371.7695 842.7599,1393.464 825.0181,1389.988 809.7125,1367.1621 
		809.7125,1349.3143 	"/>
	<polygon fill="#333333" points="841.9125,1328.13 855.0468,1371.7695 869.2689,1382.0201 875.8073,1362.8722 863.9441,1337.451 	
		"/>
</g>
<g>
	<polygon fill="#111110" points="1064.5487,1548.6621 1029.1188,1541.7207 1015.1879,1520.9448 1015.1879,1504.7001 
		1044.4958,1485.4185 1064.5487,1493.9023 1075.3463,1517.0403 	"/>
	<polygon fill="#212121" points="1044.4958,1485.4185 1056.4504,1525.1385 1045.2671,1544.8844 1029.1188,1541.7207 
		1015.1879,1520.9448 1015.1879,1504.7001 	"/>
	<polygon fill="#333333" points="1044.4958,1485.4185 1056.4504,1525.1385 1069.3953,1534.4685 1075.3463,1517.0403 
		1064.5487,1493.9023 	"/>
</g>
<g>
	<polygon fill="#111110" points="402.7908,495.6088 439.6978,473.5748 439.6978,410.2271 382.9603,393.7017 359.8246,409.6763 
		389.0196,486.2443 	"/>
	<polygon fill="#212121" points="399.7612,460.9052 382.9603,393.7017 439.6978,410.2271 439.6978,473.5748 	"/>
	<polygon fill="#333333" points="370.8907,402.0354 382.9603,393.7017 399.7612,460.9052 389.0196,486.2443 359.8246,409.6763 	"/>
</g>
<g>
	<polygon fill="#111110" points="999.1317,154.837 983.1976,215.8598 909.6054,227.6871 893.1786,166.6688 937.2025,120.5842 
		958.2288,120.5842 	"/>
	<polygon fill="#212121" points="933.2601,205.3467 937.2025,120.5842 958.2288,120.5842 999.1317,154.837 983.1976,215.8598 	"/>
	<polygon fill="#333333" points="923.2397,210.6033 909.6054,227.6871 893.1786,166.6688 937.2025,120.5842 933.2601,205.3467 	"/>
</g>
<g>
	<polygon fill="#111110" points="602.1085,669.2256 566.0807,641.6749 566.0807,579.156 639.196,565.3807 639.196,643.7942 	"/>
	<polygon fill="#212121" points="621.1821,625.7803 602.6383,572.2683 566.0807,579.156 566.0807,641.6749 639.196,643.7942 	"/>
	<polygon fill="#333333" points="639.196,608.0312 639.196,565.3807 602.6383,572.2683 621.1821,625.7803 639.196,643.7942 	"/>
</g>
<g>
	<polygon fill="#111110" points="1255.9392,1431.9426 1219.9114,1404.392 1219.9114,1341.873 1293.0266,1328.0977 
		1293.0266,1406.5112 	"/>
	<polygon fill="#212121" points="1275.0127,1388.4973 1256.469,1334.9854 1219.9114,1341.873 1219.9114,1404.392 
		1293.0266,1406.5112 	"/>
	<polygon fill="#333333" points="1293.0266,1370.7483 1293.0266,1328.0977 1256.469,1334.9854 1275.0127,1388.4973 
		1293.0266,1406.5112 	"/>
</g>
<g>
	<polygon fill="#111110" points="692.5528,297.1714 731.4788,289.5451 746.7844,266.7191 746.7844,248.8714 714.5844,227.6871 
		692.5528,237.0082 680.6896,262.4293 	"/>
	<polygon fill="#212121" points="714.5844,227.6871 701.4501,271.3267 713.737,293.0211 731.4788,289.5451 746.7844,266.7191 
		746.7844,248.8714 	"/>
	<polygon fill="#333333" points="714.5844,227.6871 701.4501,271.3267 687.228,281.5773 680.6896,262.4293 692.5528,237.0082 	"/>
</g>
<g>
	<polygon fill="#111110" points="1169.3795,393.0729 1169.3795,379.8919 1187.2126,366.3232 1206.9843,366.3232 1219.0023,386.0947 
		1219.0023,397.7251 1203.8828,412.4568 1187.2126,412.4568 	"/>
	<polygon fill="#212121" points="1187.2126,398.8881 1204.2705,398.8881 1206.9843,366.3232 1187.2126,366.3232 1169.3795,379.8919 
		1169.3795,393.0729 	"/>
	<polygon fill="#333333" points="1211.6133,373.9387 1219.0023,386.0947 1219.0023,397.7251 1203.8828,412.4568 1204.7448,393.1978 
		1206.9843,366.3232 	"/>
</g>
</svg>
